<?xml version="1.0" standalone="no"?><!DOCTYPE svg PUBLIC "-//W3C//DTD SVG 1.1//EN" "http://www.w3.org/Graphics/SVG/1.1/DTD/svg11.dtd"><svg t="1707099212116" class="icon" viewBox="0 0 1024 1024" version="1.1" xmlns="http://www.w3.org/2000/svg" p-id="15764" width="128" height="128" xmlns:xlink="http://www.w3.org/1999/xlink"><path d="M750.9 280.4c0-0.1 0-0.2 0.1-0.3 0.7-3.7 0.6-7.5-0.4-11.1-1-4-2.9-7.4-5.8-10.2-4.4-4.4-10-6.8-15.9-6.8-4.9 0-9 1.2-12.9 3.8l-0.9 0.9-1.7 1.3c-1.5 1.1-3 2.2-4.6 3.1-6.7 4.2-13.4 6.9-19.1 9.1l-21.8 8.7-15.7 6.2c-8.9 3.5-17.9-5-14.8-14l3.9-11.7 5.7-16.9 3.3-9.7c1.1-3.2 2.4-7.3 4.7-11.8l0.2-0.4c4.6-13.1 0.2-26.4-10.3-31.6l-4.4-2.2-3.5-3.4c-0.4-0.4-0.6-0.6-0.8-0.7-0.2 0-0.8-0.1-2-0.1-8 0-16.4 4.9-23 13.5l-0.1 0.1c-11.3 14.6-27.5 26.3-47.1 34.3-9.6 4-20.1 7-31.1 9.1-3.1 0.6-6.2 1.1-9.4 1.5-1.2 0.2-2.4 0.3-3.7 0.4-0.1 0-0.1 0.1-0.2 0.1s-0.2 0.1-0.3 0.1c-0.3 0-0.5 0.2-0.8 0.2-0.2 0-0.4 0.3-0.6 0.3 0 1 0.1 3.2 0.1 4.7 0 3.3-0.6 6.2-1.6 9-0.1 0.2-0.4 0.5-0.4 0.7 0 0.7-0.4 1.4-0.8 2.1-2.1 4.3-5.3 7.8-9.4 10.3 4.2-2.4 7.4-6 9.6-10.3l0.9-2.1-0.9 2.1c-3.1 6.2-8.6 11-15.8 12.9-0.2 0.1-0.4 0.1-0.7 0.2-0.3 0.1-0.5 0.1-0.8 0.2h-0.1c-0.1 0-0.3 0.1-0.4 0.1-0.3 0-0.5 0.1-0.8 0.1-0.3 0.1-0.7 0.1-1 0.1-0.2 0-0.4 0.1-0.6 0.1-0.2 0-0.5 0-0.7 0.1h-2.2c-2 0-4-0.3-5.9-0.7-6.3-1.6-11.7-5.5-15.3-10.4 0-0.1-0.1-0.1-0.1-0.1v-0.1c0.1 0.1 0.1 0.2 0.2 0.3-0.3-0.4-0.6-0.9-0.9-1.3-0.4-0.6-0.8-1.3-1.1-1.9-0.8-1.5-1.4-3.1-1.9-4.8 0-0.1-0.2-0.2-0.2-0.3 0-0.4-0.1-0.7-0.2-1.1-0.1-0.3-0.1-0.6-0.1-0.9-0.1-0.3-0.1-0.6-0.1-0.9-0.2-1.2-0.3-2.4-0.3-3.6v-7.3c-8.6-1.7-16.8-4-24.6-6.8-20.5-7.5-38-18.9-50.1-33.1l-3.8-3.7-0.7-1.4c-0.9-1-2-2.2-3.1-3.8-5.1-4.9-11.9-7.9-18.3-7.9-3 0-6.8 1-10.3 2.7-9.1 4.9-14 15.6-12.4 26.1l2 6 0.9 2.7c0.3 0.9 0.7 2.2 1 2.9l16.3 24.4 17.6 26.4c5.8 8.8-3.1 19.8-12.9 15.9l-17.7-7.1-39.9-16c-0.5-0.2-0.9-0.4-1.4-0.6-6.5-2.6-14.2-5.9-21.5-11.1-1-0.6-2.2-1.3-3.5-2.3-3.9-2.2-7.7-3.1-12.8-3.1-5.9 0-11.6 2.4-15.9 6.8l-0.1 0.1c16.4 22.5 66.2 99.9 151.6 100.8 16.4-0.6 32.3-3 47.3-7 6-1.8 12-3.9 18.3-6.5 1.4-0.7 2.9-1.3 4.4-1.8 6.4-2.4 14.1-3.7 22.1-3.7 3.2 0 6.2 0.2 9 0.5 3.4 0.4 6.5 0.9 9.3 1.7 88.2 14.6 197-17.9 221-39.1 2.3-2.4 4.4-4.9 6.5-7.4 2.1-3.2 3.9-6.7 5.3-10.7 0.3-1.1 0.6-2 0.9-2.9z" fill="#B4E84B" p-id="15765"></path><path d="M848.2 406.4c-11.7-17.9-25.4-34.4-40.9-49.4-4.3-4.2-8.8-8.2-13.4-12.1 24.6 21.8 52.3 58.8 54.3 61.5zM873.2 453.3c15.2 39.1 23.8 86.3 26.3 123.5-1.8-44.9-10.7-86.4-26.3-123.5zM897.7 627.5c-4.3 19.4-9 49.7-23 84.1 11.7-26.6 19.6-54.8 23-84.1zM586.2 922c314.2-125 199.1-584.1 199.1-584.1-4.6-3.6-9.4-7.1-14.2-10.5-3.3-2.3-6.6-4.5-10-6.7 0.7-0.7 1.3-1.5 2-2.2-0.7 0.7-1.3 1.5-2 2.2-4.3 4.7-8.8 9.1-13.5 13.3-37.8 33.8-89.3 53.4-145.7 53.4-30 0-58.7-4.8-87.5-15.6-1.2-1.2-1.2-1.2-2.4-1.2-1.2-1.2-6-2.4-13.2-2.4-6 0-10.8 1.2-13.2 2.4 0 1.2-1.2 1.2-1.2 1.2-27.6 10.8-57.5 15.6-86.3 15.6-56.8 0-108.7-19.9-146.6-54.9-10.5 7.6-20.5 15.8-29.8 24.6-31.5 29.6-55.9 65.1-72.4 105.4-16.4 40-24.7 84.2-24.7 130.9 0 28.7 4.2 56.3 12.1 83.2 32.9 71.8 63.5 114.4 86.1 139.1 71 68.7 174.4 112.4 289.3 112.4 25.4 0 50.1-2.1 74.1-6.1z" fill="#F72B35" p-id="15766"></path><path d="M149.3 462.6c16.5-40.3 40.8-75.8 72.4-105.4 9.4-8.8 19.3-17 29.8-24.6-7.4-6.8-14.2-14.1-20.5-22.1-89.9 66.9-136.3 168.9-136.3 283 0 31.7 4.6 62.2 13.3 91.8 1.9 6.4 7.8 10.8 14.4 10.8 10.1 0 17.3-9.7 14.4-19.3-7.9-26.9-12.1-54.5-12.1-83.2-0.1-46.8 8.2-91 24.6-131zM160.3 733.8c-1.3-2.4-3.2-4.4-5.5-5.7-2.3-1.4-4.9-2.1-7.7-2.1-11.4 0-18.6 12.2-13.3 22.2 2.6 4.9 5.4 9.7 8.3 14.5 3.3 5.5 9.7 8.3 16 7 10.2-2.1 15.2-13.7 9.8-22.6-2.6-4.3-5.2-8.8-7.6-13.3z" fill="" p-id="15767"></path><path d="M777.7 295.7c4.2-11.2 4.8-23 2-34-2.3-9-6.8-17.3-13.6-24.1-9.6-9.6-22.8-15.6-37.2-15.6-12 0-22.8 3.6-32.4 10.8l-1.2 1.2c-4.8 3.6-11 6-17 8.4 1.2-3.6 2.6-7.2 4.6-10.8v-1.2c10-27.6-1-56.3-25-68.3-8.4-8.4-16.7-9.6-23.9-9.6-18 0-34.7 9.6-46.7 25.2-12.5 16.1-34.3 27.5-60 32.3-2.9 0.6-5.9 1-9 1.4 0.6-12 1.7-25.4 3.5-38.8 3.4-25.5 9.5-51.3 19.6-68.6 7.8-11.7 3.9-27.2-9.1-35-11.7-7.8-28.5-3.9-35 9.1-15.4 26.5-23.2 63.2-27.1 95.6-1.5 12.6-2.5 24.6-3.1 35.1-22.7-5.3-42.1-15.9-53.6-29.8l-1.2-1.2c-1.2-2.4-3.6-3.6-4.8-6-10.8-12-26.4-19.2-41.9-19.2-8.4 0-16.8 2.4-24 6-22.8 12-34.7 39.6-26.4 65.9 0 1.2 0 1.2 1.2 2.4 1.2 3.6 2.4 8.4 4.8 12-6-2.4-12-4.8-16.8-8.4-1.2-1.2-2.4-1.2-3.6-2.4-9.6-6-19.2-8.4-30-8.4-14.4 0-27.6 6-37.2 15.6-7.2 7.2-11.9 15.9-14.1 25.3-3.3 14-1 29.4 6.9 43.1 1 1.9 1.9 3 2.8 4.6 0.3 0.4 0.5 0.9 0.8 1.4 0.2 0.3 0.4 0.6 0.7 0.8 6.3 7.9 13.1 15.3 20.5 22.2 37.9 35 89.8 54.9 146.6 54.9 28.8 0 58.7-4.8 86.3-15.6 0 0 1.2 0 1.2-1.2 2.4-1.2 7.2-2.4 13.2-2.4 7.2 0 12 1.2 13.2 2.4 1.2 0 1.2 0 2.4 1.2 28.8 10.8 57.5 15.6 87.5 15.6 56.4 0 107.9-19.6 145.7-53.4 4.7-4.2 9.3-8.7 13.5-13.3 0.7-0.7 1.3-1.5 2-2.2 2.3-2.5 4.5-5.1 6.6-7.8l1.1-1.1c-0.3 0.4-0.7 0.8-1.1 1.1-2.1 2.6-4.3 5.2-6.6 7.7-0.7 0.7-1.3 1.5-2 2.2 3.4 2.2 6.7 4.4 10 6.7 4.9 3.4 9.6 6.9 14.2 10.5 2.8 2.1 5.7 4.4 8.6 7 4.6 3.9 9.1 7.9 13.4 12.1 15.6 14.9 29.2 31.5 40.9 49.4 0.1 0.1 0.1 0.2 0.1 0.2 9.7 12.8 17.9 29 24.8 46.8 15.7 37.1 24.5 78.6 26.3 123.5 1.4 21.2 0.8 39.2-1.7 50.6v0.1c-3.5 29.3-11.3 57.5-23 84.1-15.1 37.2-40.9 79.4-88.5 118.2-91.4 79.9-199.7 92-199.7 92-24 4-48.7 6.1-74 6.1-114.9 0-218.2-43.8-289.3-112.4-5.9-5.7-11.5-11.5-16.9-17.5-3.6-4-9.1-5.8-14.3-4.7-11.5 2.4-16 16.3-8.2 25.1 76.4 85 195.3 139.6 328.7 139.6 230.6 0 417.6-163.5 417.6-365 0-122.8-49.1-231.4-152.1-297.5z m-31-4.6l-0.9 1.4c-0.4 0.5-0.7 0.9-1.1 1.3-2.1 2.6-4.3 5-6.5 7.4-1.3 1.4-2.5 2.7-3.8 4-33.3 33.3-80.5 52.1-132.4 52.1-25.8 0-49.8-4-73.1-12.3-2-1.2-4.2-2.3-6.9-3.1-1.5-0.6-3.1-1.2-4.8-1.6-2.9-0.8-6-1.4-9.3-1.7-2.8-0.3-5.8-0.5-9-0.5-8 0-15.7 1.3-22.1 3.7-1.5 0.6-3 1.2-4.4 1.8 0 0-0.1 0-0.1 0.1l-4.4 2.2c-4.5 1.6-9 3-13.7 4.2-15 4-31 6.4-47.3 7-2.9 0.1-5.7 0.2-8.6 0.2-46.2 0-88.6-15-120.6-42-7.9-6.6-15.1-14-21.6-22-0.2-0.2-0.4-0.5-0.6-0.7-0.1-0.1-0.1-0.2-0.1-0.2-0.7-1.1-1.3-2-1.7-2.6-0.1-0.1-0.1-0.2-0.2-0.2l-0.2-0.4-0.5-0.8c-4-6.8-5.3-14.3-3.7-21.1 1-4.2 3-7.8 6.1-10.9l0.1-0.1c4.4-4.4 10-6.8 15.9-6.8 5.2 0 8.9 0.9 12.8 3.1 1.3 1 2.5 1.7 3.5 2.3 7.2 5.3 15 8.5 21.5 11.1 0.5 0.2 0.9 0.4 1.4 0.6l39.9 16 17.7 7.1c9.8 3.9 18.8-7.1 12.9-15.9l-17.6-26.4-16.4-24.4c-0.3-0.7-0.7-2-1-2.9-0.3-1-0.6-1.9-0.9-2.7l-2-6c-1.6-10.5 3.3-21.2 12.4-26.1 3.5-1.7 7.2-2.7 10.3-2.7 6.4 0 13.3 3 18.3 7.9 1.1 1.5 2.2 2.8 3.1 3.8l0.7 1.4 3.8 3.7c12.2 14.2 29.6 25.6 50.1 33.1 7.8 2.9 16 5.1 24.6 6.8v7.3c0 1.2 0.1 2.4 0.3 3.6 0 0.3 0.1 0.6 0.1 0.9 0 0.3 0 0.6 0.1 0.9 0.1 0.4 0.2 0.7 0.2 1.1 0 0.1 0.1 0.2 0.2 0.3 0.5 1.7 1.1 3.3 1.9 4.8 0.3 0.6 0.7 1.3 1.1 1.9 0.3 0.4 0.6 0.9 0.9 1.3-0.1-0.1-0.1-0.2-0.2-0.3v0.1l0.1 0.1c3.6 4.9 9 8.8 15.3 10.4 1.9 0.5 3.9 0.7 5.9 0.7h2.2c0.2 0 0.5 0 0.7-0.1 0.2 0 0.4 0 0.6-0.1 0.3 0 0.7-0.1 1-0.1 0.3 0 0.5-0.1 0.8-0.1 0.1 0 0.3-0.1 0.4-0.1h0.1c0.3-0.1 0.5-0.1 0.8-0.2 0.2-0.1 0.4-0.1 0.7-0.2 7.2-1.9 12.7-6.7 15.8-12.9l0.9-2.1-0.9 2.1c-2.1 4.3-5.4 7.8-9.6 10.3 4.1-2.5 7.3-6 9.4-10.3 0.3-0.7 0.8-1.4 0.8-2.1 0-0.2 0.3-0.5 0.4-0.7 1-2.9 1.6-5.8 1.6-9-0.1-1.5-0.1-3.7-0.1-4.7 0.2 0 0.4-0.3 0.6-0.3 0.3 0 0.5-0.2 0.8-0.2 0.1 0 0.2-0.1 0.3-0.1 0.1 0 0.1 0 0.2-0.1 1.2-0.1 2.5-0.3 3.7-0.4 3.2-0.4 6.3-0.9 9.4-1.5 11.1-2 21.5-5.1 31.1-9.1 19.5-8 35.8-19.7 47.1-34.3l0.1-0.1c6.6-8.6 14.9-13.5 23-13.5 1.1 0 1.7 0.1 2 0.1 0.1 0.1 0.4 0.3 0.8 0.7l3.5 3.4 4.4 2.2c10.5 5.2 14.8 18.5 10.3 31.6l-0.2 0.4c-2.3 4.5-3.7 8.6-4.7 11.8l-3.3 9.7-5.7 16.9-3.9 11.7c-3 9.1 5.9 17.6 14.8 14l15.7-6.2 21.8-8.7c5.7-2.3 12.5-5 19.1-9.1 1.5-1 3.1-2 4.6-3.1l1.7-1.3 0.9-0.9c3.9-2.6 8-3.8 12.9-3.8 5.9 0 11.5 2.4 15.9 6.8 2.8 2.8 4.8 6.3 5.8 10.2 0.9 3.6 1 7.4 0.4 11.1 0 0.1 0 0.2-0.1 0.3-0.6 3.8-2 7.4-4.1 10.8z" fill="" p-id="15768"></path><path d="M586.2 922s108.4-12.1 200.1-92.2c47.6-38.8 73.4-81 88.5-118.2 13.9-34.4 18.7-64.7 23-84.1v-0.1c2.5-11.4 3.1-29.4 1.7-50.6-2.5-37.2-11.1-84.4-26.3-123.5-6.9-17.8-15.2-34-24.8-46.8 0 0 0-0.1-0.1-0.2-2-2.7-29.7-39.7-54.4-61.5-2.9-2.6-5.8-4.9-8.6-7 0 0.1 115.1 459.2-199.1 584.2z" fill="#ED263A" p-id="15769"></path></svg>