<?xml version="1.0" standalone="no"?><!DOCTYPE svg PUBLIC "-//W3C//DTD SVG 1.1//EN" "http://www.w3.org/Graphics/SVG/1.1/DTD/svg11.dtd"><svg t="1707029183193" class="icon" viewBox="0 0 1024 1024" version="1.1" xmlns="http://www.w3.org/2000/svg" p-id="1491" width="128" height="128" xmlns:xlink="http://www.w3.org/1999/xlink"><path d="M161.644695 1022.013192s-16.391164-214.078541 194.210463-233.946619h94.621722V746.343609a205.386257 205.386257 0 0 0 133.612825 2.980211l2.235159 38.494402h110.019482s188.995093 7.202178 180.302809 235.933427L161.396344 1021.764841" fill="#FFFFFF" p-id="1492"></path><path d="M863.981255 1024H146.495285l3.476914-55.87897a202.902748 202.902748 0 0 1 198.680781-192.472006h76.988802v10.18239H354.861754a195.452218 195.452218 0 0 0-191.478603 185.269828l-2.483509 38.742752h701.343156l-1.241754-38.742752a195.452218 195.452218 0 0 0-191.478603-185.269828h-96.111828v-11.175794h100.582146a202.902748 202.902748 0 0 1 198.68078 192.472006l3.476914 55.87897h-12.914251" fill="#515151" p-id="1493"></path><path d="M511.819571 907.02669a102.817304 102.817304 0 0 1-99.34039-131.377666h29.802117v11.672496h-21.606535a91.64151 91.64151 0 1 0 180.302809 0h-21.606535v-11.672496h29.802117a102.817304 102.817304 0 0 1-99.340391 131.377666" fill="#515151" p-id="1494"></path><path d="M450.47688 736.161219v67.054763a62.087744 62.087744 0 1 0 124.175488 0v-65.813009l10.679092-3.725264v69.538273a73.015187 73.015187 0 1 1-146.030374 0v-71.525081l11.175794 4.470318" fill="#515151" p-id="1495"></path><path d="M504.617393 103.611282c128.397455 0 229.724653 116.724959 226.247739 257.043261l-3.476914 149.010585c-2.980212 132.122719-102.817304 236.67848-223.515878 236.678481s-219.790614-104.555761-223.515879-236.678481l-3.476913-149.010585C273.650985 220.336241 374.978183 103.611282 503.127287 103.611282" fill="#FFFFFF" p-id="1496"></path><path d="M730.865132 351.962258l-3.725265 152.4875C723.911305 639.552689 621.094001 746.343609 497.166863 746.343609s-226.744441-106.79092-229.973003-241.893851l-3.725265-152.4875C259.991681 208.415394 364.547442 88.958575 497.166863 88.958575s237.175182 119.45682 233.698269 263.003683zM496.670162 104.853037c-124.175488 0-223.515879 113.744747-220.038965 250.586135l3.476913 145.285321c2.980212 128.894157 99.34039 230.718057 216.562052 230.718057s213.58184-101.8239 216.562051-230.718057l3.476913-145.285321c3.228563-136.841388-95.118424-250.586135-220.038964-250.586135z" fill="#515151" p-id="1497"></path><path d="M730.865132 381.267674l-10.18239 159.192975s-45.69658 183.779722-223.515879 205.634609h-1.986807c-176.577544-21.854886-223.515879-205.634608-223.515879-205.634609l-10.18239-159.192975c45.944931 191.975305 84.439332 203.896151 84.439332 203.896151-7.69888-58.114128 55.630619-52.402056 55.630619-52.402056a844.393319 844.393319 0 0 0 93.628318 10.18239 845.883425 845.883425 0 0 0 93.628318-10.18239s63.329499-5.712072 55.630618 52.402056c1.986808 0 40.72956-11.920847 86.42614-203.896151z m-114.4898 223.515878c-2.980212-34.272435-24.835098-31.292223-24.835098-31.292223a670.547636 670.547636 0 0 1-93.379967 19.868078 667.319073 667.319073 0 0 1-92.634914-19.619727s-21.854886-2.980212-24.835097 31.043872a43.21307 43.21307 0 0 0 20.613131 49.670195l37.004295 37.004296s24.835098 7.450529 24.835098-21.358184c0 0-2.48351-21.606535 12.417549-24.835098h45.448228c15.14941 3.725265 12.417549 24.835098 12.417549 24.835098 0 29.305415 24.835098 21.606535 24.835098 21.606535l37.252646-37.252647a43.461421 43.461421 0 0 0 20.861482-49.670195z" fill="#515151" p-id="1498"></path><path d="M627.799477 596.091268a186.263232 186.263232 0 0 1-108.777728 29.802117 186.263232 186.263232 0 0 1-108.777727-29.802117s-1.986808-4.96702 0-7.69888a9.685688 9.685688 0 0 1 7.202178-1.986808 158.944625 158.944625 0 0 0 100.582145 27.815309 158.944625 158.944625 0 0 0 101.57555-27.070256s4.470318-1.490106 6.705476 0a7.947231 7.947231 0 0 1 1.490106 8.940635z m-142.305109 62.832797h64.322902v-9.685688h-64.322902z" fill="#515151" p-id="1499"></path><path d="M256.763119 386.483044a24.835098 24.835098 0 0 0-7.45053-3.725265 33.279031 33.279031 0 0 0-8.692284-1.490105h-10.927443a31.043872 31.043872 0 0 0-20.116429 19.371376 67.054764 67.054764 0 0 0-4.221967 22.103237v15.149409c0 5.463721 0 11.424145 2.235159 17.88127a138.579845 138.579845 0 0 0 5.712073 42.468017 78.727259 78.727259 0 0 0 49.670195 57.120725c-3.228563-56.127321-3.476914-113.496396-6.705476-170.120419" fill="#FFFFFF" p-id="1500"></path><path d="M264.958701 384.247885s-48.42844-15.14941-46.689984 35.017488c0 0 7.202178 72.766836 10.430741 79.472312 0 0 19.123025 42.219666 49.670195 44.206474v13.659304a81.707471 81.707471 0 0 1-65.813008-71.028379l-8.443933-58.114129s-6.457125-76.988803 56.872373-57.369075l2.980212 14.404356" fill="#515151" p-id="1501"></path><path d="M251.796099 481.104766a13.162602 13.162602 0 0 1-5.960423 2.235159 12.914251 12.914251 0 0 1-5.960424-2.235159l-5.960423-54.140513s8.443933-26.573554 42.716368-13.659303v15.39776s-30.54717-9.685688-29.802118 2.48351 3.973616 49.670195 3.973616 49.670195" fill="#E2E2E2" p-id="1502"></path><path d="M737.818959 386.483044a24.835098 24.835098 0 0 1 7.45053-3.725265 33.279031 33.279031 0 0 1 8.692284-1.490105h10.927443a31.043872 31.043872 0 0 1 20.116429 19.371376 67.303115 67.303115 0 0 1 4.221966 22.103237v15.149409c0 5.463721 0 11.424145-2.235158 17.88127a138.579845 138.579845 0 0 1-5.712073 42.468017 78.727259 78.727259 0 0 1-49.670195 57.120725c3.228563-56.127321 3.476914-113.496396 6.705476-170.120419" fill="#FFFFFF" p-id="1503"></path><path d="M744.027734 384.247885s48.42844-15.14941 46.689983 35.017488c0 0-7.202178 72.766836-10.430741 79.472312 0 0-19.123025 42.219666-49.670195 44.206474v13.659304a81.707471 81.707471 0 0 0 65.813009-71.27673l8.443933-58.114129s6.457125-76.988803-56.872374-57.369075l-2.980211 14.404356" fill="#515151" p-id="1504"></path><path d="M759.425494 490.293752a11.175794 11.175794 0 0 0 5.215371 1.986808 10.927443 10.927443 0 0 0 5.21537-1.986808l5.215371-49.670195s-7.202178-24.835098-37.252647-11.175794v13.907655s26.325203-8.692284 24.835098 2.235158-3.228563 44.703176-3.228563 44.703176z m-234.443321-3.973615h3.725264a120.946925 120.946925 0 0 1 14.652708 37.500997 27.070256 27.070256 0 0 1 0 13.907655c-3.973616 10.430741-16.391164 10.18239-26.821905 14.901058a29.553766 29.553766 0 0 1-8.443934 3.973616c-2.235159-1.986808-5.215371-2.235159-6.208774-5.463722s0-5.960423 3.725265-7.450529 21.109833-5.215371 23.09664-9.934039 0-10.18239 0-12.914251a144.043566 144.043566 0 0 0-5.712072-18.874674c-1.738457-4.221967-4.96702-8.443933-3.228563-13.410953a28.312011 28.312011 0 0 0 5.215371-2.235158zM379.945203 410.324738h14.652707a13.907655 13.907655 0 1 1 0 27.566958H379.945203a13.907655 13.907655 0 1 1 0-27.566958z m238.913639 0h14.652707a13.907655 13.907655 0 1 1 0 27.566958h-14.652707a13.907655 13.907655 0 1 1 0-27.566958z" fill="#515151" p-id="1505"></path><path d="M644.935694 468.935568a29.305415 29.305415 0 1 1-27.566958 29.305415 28.312011 28.312011 0 0 1 27.566958-29.305415z m-266.480597 0A29.305415 29.305415 0 1 1 351.136489 497.992632a28.312011 28.312011 0 0 1 27.566959-29.305415z" fill="#F7F7F7" p-id="1506"></path><path d="M679.704831 366.366615h22.103237s-27.566958-49.670195-140.318302-18.129621l10.679092 12.6659s64.819605-33.279031 107.535973 5.463721z m-243.135606-7.947231s-64.571254-30.54717-107.287621 7.947231h-21.854886s27.318607-49.670195 139.821599-18.129621l-10.679092 12.6659z" fill="#515151" p-id="1507"></path><path d="M272.160879 483.339925S166.860065 444.597173 152.455709 385.737991s-1.986808-95.863477 15.39776-108.032674c0 0-7.450529-90.399755 28.808713-119.705171a130.880964 130.880964 0 0 1 99.340391-86.42614s129.63921-127.404051 362.344074-38.991103a682.220132 682.220132 0 0 0 92.138212 71.028379l2.980212 1.490106c34.272435 17.384568 66.309711 53.643811 72.766836 124.175488a183.531371 183.531371 0 0 0 33.03068 104.059059s37.252646 109.026079-139.076547 147.272129l-6.705476-150.997393s-81.707471-26.325203-90.399756-96.111828c0 0-119.208469 35.265839-194.210463-1.986808 0 0-46.689984-13.162602-49.670195 5.960423a136.841388 136.841388 0 0 1-99.340391 99.340391l-8.692284 146.775427" fill="#1afa29" p-id="1508"></path></svg>